<?xml version="1.0" ?><svg data-name="Layer 1" id="Layer_1" viewBox="0 0 150 150" xmlns="http://www.w3.org/2000/svg" xmlns:xlink="http://www.w3.org/1999/xlink"><defs><style>.cls-1{fill:#13818d;}.cls-2{clip-path:url(#clip-path);}.cls-3{fill:#44c2c7;}.cls-4{fill:#fff;}</style><clipPath id="clip-path"><circle class="cls-1" cx="75" cy="75" r="65"/></clipPath></defs><title/><circle class="cls-1" cx="75" cy="75" r="65"/><g class="cls-2"><rect class="cls-3" height="34.48" width="163.27" x="-7.65" y="108.03"/><polygon class="cls-4" points="49.73 59.95 37.96 59.95 37.96 63.65 39.75 63.65 39.75 108.02 47.71 108.02 47.71 63.65 49.73 63.65 49.73 59.95"/><polygon class="cls-4" points="99.27 59.95 87.5 59.95 87.5 63.65 89.43 63.65 89.43 91.44 80.72 91.44 80.72 63.65 82.42 63.65 82.42 59.95 70.65 59.95 70.65 63.65 72.76 63.65 72.76 91.44 62.75 91.44 62.75 63.65 64.84 63.65 64.84 59.95 53.08 59.95 53.08 63.65 54.79 63.65 54.79 91.44 54.79 91.48 54.79 95.52 97.39 95.52 97.39 91.48 97.39 91.44 97.39 63.65 99.27 63.65 99.27 59.95"/><rect class="cls-4" height="4.13" width="50.76" x="50.71" y="97.68"/><polygon class="cls-4" points="114.3 59.95 102.53 59.95 102.53 63.65 104.47 63.65 104.47 103.95 39.75 103.95 39.75 108.03 112.43 108.03 112.43 108.02 112.43 103.95 112.43 63.65 114.3 63.65 114.3 59.95"/><polygon class="cls-4" points="34.25 58.35 119.24 58.35 76.74 30.19 34.25 58.35"/><circle class="cls-3" cx="76.74" cy="46.9" r="5.1"/></g></svg>